<mxfile host="65bd71144e">
    <diagram id="peQSK-Yu7jwVAzIKbeXz" name="ページ1">
        <mxGraphModel dx="712" dy="907" grid="1" gridSize="10" guides="1" tooltips="1" connect="1" arrows="1" fold="1" page="1" pageScale="1" pageWidth="827" pageHeight="583" math="0" shadow="0">
            <root>
                <mxCell id="0"/>
                <mxCell id="1" parent="0"/>
                <mxCell id="37" style="edgeStyle=orthogonalEdgeStyle;curved=1;jumpStyle=arc;html=1;startArrow=none;startFill=0;endArrow=classic;endFill=1;" parent="1" source="2" target="28" edge="1">
                    <mxGeometry relative="1" as="geometry">
                        <Array as="points">
                            <mxPoint x="424" y="277"/>
                            <mxPoint x="424" y="277"/>
                        </Array>
                    </mxGeometry>
                </mxCell>
                <mxCell id="39" value="ユーザ情報クエリ" style="edgeLabel;html=1;align=center;verticalAlign=middle;resizable=0;points=[];" parent="37" vertex="1" connectable="0">
                    <mxGeometry x="-0.0036" relative="1" as="geometry">
                        <mxPoint y="-51" as="offset"/>
                    </mxGeometry>
                </mxCell>
                <mxCell id="43" value="動画検索" style="edgeStyle=orthogonalEdgeStyle;curved=1;jumpStyle=arc;html=1;startArrow=none;startFill=0;endArrow=classic;endFill=1;" parent="1" source="2" target="36" edge="1">
                    <mxGeometry x="0.0072" relative="1" as="geometry">
                        <Array as="points">
                            <mxPoint x="534" y="347"/>
                            <mxPoint x="534" y="347"/>
                        </Array>
                        <mxPoint as="offset"/>
                    </mxGeometry>
                </mxCell>
                <mxCell id="45" value="プレイリスト検索" style="edgeStyle=orthogonalEdgeStyle;curved=1;jumpStyle=arc;html=1;startArrow=none;startFill=0;endArrow=classic;endFill=1;" parent="1" source="2" target="28" edge="1">
                    <mxGeometry x="0.4228" relative="1" as="geometry">
                        <Array as="points">
                            <mxPoint x="410" y="270"/>
                            <mxPoint x="410" y="270"/>
                        </Array>
                        <mxPoint as="offset"/>
                    </mxGeometry>
                </mxCell>
                <mxCell id="49" value="動画情報" style="edgeStyle=orthogonalEdgeStyle;curved=1;jumpStyle=arc;html=1;startArrow=none;startFill=0;endArrow=classic;endFill=1;" parent="1" source="2" target="46" edge="1">
                    <mxGeometry relative="1" as="geometry">
                        <Array as="points">
                            <mxPoint x="224" y="387"/>
                            <mxPoint x="224" y="387"/>
                        </Array>
                    </mxGeometry>
                </mxCell>
                <mxCell id="52" style="edgeStyle=orthogonalEdgeStyle;curved=1;jumpStyle=arc;html=1;startArrow=none;startFill=0;endArrow=classic;endFill=1;" parent="1" source="2" target="46" edge="1">
                    <mxGeometry relative="1" as="geometry">
                        <Array as="points">
                            <mxPoint x="224" y="407"/>
                            <mxPoint x="224" y="407"/>
                        </Array>
                    </mxGeometry>
                </mxCell>
                <mxCell id="53" value="プレイリスト情報" style="edgeLabel;html=1;align=center;verticalAlign=middle;resizable=0;points=[];" parent="52" vertex="1" connectable="0">
                    <mxGeometry x="0.2461" y="2" relative="1" as="geometry">
                        <mxPoint as="offset"/>
                    </mxGeometry>
                </mxCell>
                <mxCell id="2" value="ps-application" style="ellipse;whiteSpace=wrap;html=1;" parent="1" vertex="1">
                    <mxGeometry x="294" y="307" width="190" height="130" as="geometry"/>
                </mxCell>
                <mxCell id="42" value="ユーザ情報" style="edgeStyle=orthogonalEdgeStyle;curved=1;jumpStyle=arc;html=1;startArrow=none;startFill=0;endArrow=classic;endFill=1;" parent="1" source="28" target="2" edge="1">
                    <mxGeometry x="0.6952" relative="1" as="geometry">
                        <Array as="points">
                            <mxPoint x="354" y="257"/>
                            <mxPoint x="354" y="257"/>
                        </Array>
                        <mxPoint as="offset"/>
                    </mxGeometry>
                </mxCell>
                <mxCell id="28" value="データベース" style="rounded=0;whiteSpace=wrap;html=1;" parent="1" vertex="1">
                    <mxGeometry x="329" y="100" width="120" height="70" as="geometry"/>
                </mxCell>
                <mxCell id="44" value="動画情報" style="edgeStyle=orthogonalEdgeStyle;curved=1;jumpStyle=arc;html=1;startArrow=none;startFill=0;endArrow=classic;endFill=1;" parent="1" source="36" target="2" edge="1">
                    <mxGeometry relative="1" as="geometry">
                        <Array as="points">
                            <mxPoint x="544" y="397"/>
                            <mxPoint x="544" y="397"/>
                        </Array>
                    </mxGeometry>
                </mxCell>
                <mxCell id="36" value="YouTube" style="rounded=0;whiteSpace=wrap;html=1;" parent="1" vertex="1">
                    <mxGeometry x="604" y="337" width="120" height="70" as="geometry"/>
                </mxCell>
                <mxCell id="47" value="検索ワード" style="edgeStyle=orthogonalEdgeStyle;curved=1;jumpStyle=arc;html=1;startArrow=none;startFill=0;endArrow=classic;endFill=1;" parent="1" source="46" target="2" edge="1">
                    <mxGeometry relative="1" as="geometry">
                        <Array as="points">
                            <mxPoint x="244" y="337"/>
                            <mxPoint x="244" y="337"/>
                        </Array>
                    </mxGeometry>
                </mxCell>
                <mxCell id="48" value="プレイリスト作成" style="edgeStyle=orthogonalEdgeStyle;curved=1;jumpStyle=arc;html=1;startArrow=none;startFill=0;endArrow=classic;endFill=1;" parent="1" source="46" target="2" edge="1">
                    <mxGeometry relative="1" as="geometry">
                        <Array as="points">
                            <mxPoint x="224" y="357"/>
                            <mxPoint x="224" y="357"/>
                        </Array>
                    </mxGeometry>
                </mxCell>
                <mxCell id="46" value="Actor" style="shape=umlActor;verticalLabelPosition=bottom;verticalAlign=top;html=1;outlineConnect=0;" parent="1" vertex="1">
                    <mxGeometry x="104" y="332" width="40" height="80" as="geometry"/>
                </mxCell>
                <mxCell id="54" value="プレイリスト情報" style="edgeStyle=orthogonalEdgeStyle;curved=1;jumpStyle=arc;html=1;startArrow=none;startFill=0;endArrow=classic;endFill=1;" edge="1" parent="1" source="28" target="2">
                    <mxGeometry x="0.446" relative="1" as="geometry">
                        <Array as="points">
                            <mxPoint x="370" y="240"/>
                            <mxPoint x="370" y="240"/>
                        </Array>
                        <mxPoint as="offset"/>
                        <mxPoint x="364" y="180" as="sourcePoint"/>
                        <mxPoint x="364" y="321.57216249354633" as="targetPoint"/>
                    </mxGeometry>
                </mxCell>
            </root>
        </mxGraphModel>
    </diagram>
</mxfile>